<?xml version="1.0" encoding="UTF-8"?>
<svg version="1.1" xmlns="http://www.w3.org/2000/svg" width="1403" height="512">
<path d="M0 0 C0.75499283 -0.00570007 1.50998566 -0.01140015 2.28785706 -0.01727295 C3.88386657 -0.02668402 5.47989517 -0.03324138 7.07592773 -0.03710938 C9.46569909 -0.04672133 11.85457403 -0.07774148 14.24414062 -0.109375 C25.70577331 -0.18724723 35.95170045 1.38045106 47.06640625 4.203125 C45.70153766 12.65947364 43.74531367 20.93541023 41.60742188 29.22265625 C41.05892441 31.35724203 40.52349843 33.49486316 39.98828125 35.6328125 C39.64010941 36.99238915 39.29118004 38.35177209 38.94140625 39.7109375 C38.47347656 41.54615967 38.47347656 41.54615967 37.99609375 43.41845703 C37.06640625 46.203125 37.06640625 46.203125 35.06640625 47.203125 C33.89078125 46.873125 32.71515625 46.543125 31.50390625 46.203125 C18.03375432 43.03622938 2.59190549 46.28703576 -9.24609375 53.015625 C-24.12916462 62.69684586 -31.87212344 76.71391229 -36.28125 93.66015625 C-36.60339729 94.89255791 -36.60339729 94.89255791 -36.93205261 96.14985657 C-39.54161281 106.32406202 -41.6391334 116.60304207 -43.74609375 126.890625 C-45.12796875 133.59375 -46.50984375 140.296875 -47.93359375 147.203125 C-23.84359375 147.533125 0.24640625 147.863125 25.06640625 148.203125 C23.76703125 154.225625 22.46765625 160.248125 21.12890625 166.453125 C20.720354 168.34836914 20.31180176 170.24361328 19.89086914 172.19628906 C19.5653184 173.70378716 19.23971945 175.21127484 18.9140625 176.71875 C18.66263489 177.88639893 18.66263489 177.88639893 18.40612793 179.07763672 C17.67324855 182.46754493 16.90768946 185.83799217 16.06640625 189.203125 C-8.02359375 189.203125 -32.11359375 189.203125 -56.93359375 189.203125 C-57.92359375 195.638125 -57.92359375 195.638125 -58.93359375 202.203125 C-59.66849059 206.10510111 -60.42281428 209.99602607 -61.21411133 213.88623047 C-61.43468327 214.98291644 -61.6552552 216.07960241 -61.88251114 217.20952129 C-62.61153079 220.83036655 -63.34480201 224.45033655 -64.078125 228.0703125 C-64.60135209 230.66441582 -65.12434714 233.25856498 -65.64707947 235.85276794 C-67.05130196 242.81816845 -68.45992263 249.7826747 -69.86955261 256.74698257 C-70.74697293 261.08195427 -71.62351495 265.41710326 -72.49987793 269.75228882 C-74.88164834 281.53376267 -77.26402802 293.3151123 -79.65023804 305.09568787 C-82.73877217 320.34452116 -85.82028058 335.59470324 -88.88534451 350.84827423 C-90.80639612 360.40790492 -92.73355819 369.96628756 -94.6659708 379.52362823 C-95.77822991 385.02580481 -96.88746002 390.52854889 -97.98892212 396.03289795 C-99.01531286 401.16135246 -100.05071287 406.28790854 -101.09280586 411.41319466 C-101.46568425 413.25482942 -101.83545961 415.09709625 -102.20155144 416.94009209 C-104.07585445 426.36666645 -106.20825599 435.65208392 -108.92285156 444.87573242 C-109.15526424 445.67589185 -109.38767693 446.47605127 -109.62713242 447.30045795 C-113.31320836 459.39651207 -119.59859896 470.69896804 -127.93359375 480.203125 C-128.52398437 480.9353125 -129.114375 481.6675 -129.72265625 482.421875 C-141.65834729 496.76435147 -158.96390063 505.85075329 -176.93359375 510.203125 C-177.59504395 510.37900146 -178.25649414 510.55487793 -178.93798828 510.73608398 C-186.4906149 512.5327687 -194.04656372 512.54100944 -201.76269531 512.51879883 C-204.03370166 512.51565941 -206.30337441 512.53909569 -208.57421875 512.56445312 C-220.07261287 512.61294127 -230.78090056 511.09904109 -241.93359375 508.203125 C-241.34712559 502.6127024 -240.34058873 497.41654806 -238.7890625 492.01953125 C-238.57800369 491.27855698 -238.36694489 490.5375827 -238.14949036 489.77415466 C-237.70485874 488.22451715 -237.25679485 486.67586061 -236.80541992 485.12817383 C-236.11714902 482.75200632 -235.45404012 480.36964561 -234.79101562 477.98632812 C-234.35439153 476.4761202 -233.91629338 474.96633749 -233.4765625 473.45703125 C-233.2816069 472.74358047 -233.08665131 472.0301297 -232.88578796 471.2950592 C-232.28979492 469.31079102 -232.28979492 469.31079102 -230.93359375 466.203125 C-228.03274342 464.65939329 -225.98308195 465.31723388 -222.93359375 466.203125 C-204.72939215 467.3443956 -189.64593128 464.35011333 -175.24609375 452.515625 C-157.91931581 436.41119471 -154.81091884 410.36025229 -150.44042969 388.30493164 C-150.00676125 386.13517629 -149.57266721 383.96550596 -149.13818359 381.7959137 C-147.96886263 375.95073393 -146.80544317 370.10439389 -145.64313793 364.2578156 C-144.42411039 358.13126215 -143.19957789 352.00580916 -141.97564697 345.88023376 C-139.92499522 335.61323768 -137.87769466 325.34557816 -135.83300781 315.07739258 C-133.72851245 304.50890399 -131.62196421 293.94082797 -129.51269531 283.37329102 C-129.3823184 282.72009284 -129.25194149 282.06689467 -129.11761376 281.39390261 C-128.4634304 278.11645981 -127.80920493 274.83902543 -127.15496397 271.56159413 C-121.7417402 244.44331826 -116.336111 217.32353601 -110.93359375 190.203125 C-141.12859375 189.708125 -141.12859375 189.708125 -171.93359375 189.203125 C-171.30540948 180.40854528 -170.61312427 171.79030094 -169.43359375 163.078125 C-169.30339844 162.0778125 -169.17320312 161.0775 -169.0390625 160.046875 C-168.50324204 156.00927844 -167.92326798 152.16182192 -166.93359375 148.203125 C-145.48359375 148.203125 -124.03359375 148.203125 -101.93359375 148.203125 C-101.27359375 144.243125 -100.61359375 140.283125 -99.93359375 136.203125 C-99.53175192 134.0614218 -99.11850593 131.92175921 -98.68432617 129.78637695 C-98.34838692 128.12823723 -98.34838692 128.12823723 -98.00566101 126.43659973 C-97.7691835 125.28318588 -97.53270599 124.12977203 -97.2890625 122.94140625 C-96.91156609 121.09629707 -96.91156609 121.09629707 -96.52644348 119.21391296 C-95.99572652 116.6261489 -95.46369935 114.03865323 -94.93041992 111.45141602 C-94.12567796 107.54545559 -93.33400609 103.6368785 -92.54101562 99.72851562 C-85.3009104 64.36056776 -85.3009104 64.36056776 -79.05859375 52.828125 C-78.54607056 51.84755127 -78.54607056 51.84755127 -78.02319336 50.84716797 C-65.34963217 26.95549508 -47.06472211 11.3337015 -21.30859375 3.265625 C-14.18558152 1.08118755 -7.4504413 0.0446321 0 0 Z " fill="#0193E1" transform="translate(629.93359375,-0.203125)"/>
<path d="M0 0 C0.61488281 0.44988281 1.22976562 0.89976562 1.86328125 1.36328125 C7.65410308 5.92146695 13.66380536 12.56527596 15 20 C17.83441375 17.2777169 20.21594626 14.45982154 22.5625 11.3125 C34.40153073 -3.54646833 50.5250951 -10.78287956 68.9375 -13.75 C70.28919336 -13.86677696 71.64444377 -13.94361638 73 -14 C74.14597656 -14.0515625 75.29195312 -14.103125 76.47265625 -14.15625 C98.27042782 -14.81080524 116.87726303 -8.91713747 133.2421875 6.05078125 C145.30807987 18.5157401 152.13515484 37.0313193 152.12025452 54.22628784 C152.12231651 56.06873833 152.12231651 56.06873833 152.12442017 57.94841003 C152.12088177 59.29617334 152.11724697 60.6439364 152.11352539 61.99169922 C152.1132431 63.42113747 152.11340207 64.85057587 152.1139679 66.28001404 C152.11425423 70.14938282 152.10838392 74.01872047 152.10139394 77.88808203 C152.09513319 81.935976 152.09455445 85.98387073 152.09336853 90.0317688 C152.09026324 97.69204958 152.08206066 105.35231604 152.07201904 113.01259053 C152.060833 121.73565725 152.05534118 130.45872467 152.05032361 139.18179679 C152.03987738 157.12120761 152.02154186 175.06059883 152 193 C136.49 193 120.98 193 105 193 C104.9906543 189.06940674 104.98130859 185.13881348 104.97167969 181.08911133 C104.93784696 168.07316612 104.88246185 155.0573865 104.81609726 142.04156971 C104.77639964 134.1534424 104.7439603 126.2654135 104.72900391 118.37719727 C104.715939 111.49651838 104.68885211 104.6160569 104.64538693 97.73550051 C104.62287998 94.0970541 104.60708277 90.45887475 104.60811615 86.82035255 C104.60900971 82.74427095 104.57857787 78.66896851 104.54589844 74.59301758 C104.5509288 73.40545868 104.55595917 72.21789978 104.56114197 70.99435425 C104.41242441 58.93111598 101.84313461 47.66192284 93 39 C84.9410467 32.20452667 74.63856179 30.37069034 64.33984375 30.65234375 C52.97209753 31.83565301 44.40724128 36.03373717 36.75 44.375 C28.26332068 54.93160111 26.55080348 67.64040389 26.56762695 80.83691406 C26.5574353 82.0578627 26.54724365 83.27881134 26.53674316 84.53675842 C26.51194726 87.84392296 26.49992885 91.15064537 26.49388909 94.45786381 C26.48442887 97.92923185 26.45822015 101.40047526 26.43388367 104.87176514 C26.39042331 111.42683599 26.36175134 117.98188237 26.33856028 124.53705287 C26.31139803 132.00763643 26.26749395 139.47809333 26.22227156 146.94858599 C26.12971879 162.29900608 26.06011372 177.64941339 26 193 C10.16 193 -5.68 193 -22 193 C-22.0093457 189.09969971 -22.01869141 185.19939941 -22.02832031 181.1809082 C-22.06215424 168.26474711 -22.11754004 155.34875284 -22.18390274 142.43272114 C-22.22359899 134.60512796 -22.25603902 126.77763395 -22.27099609 118.94995117 C-22.28406172 112.12200914 -22.3111504 105.29428617 -22.35461307 98.46646756 C-22.37711844 94.85596635 -22.39291732 91.2457342 -22.39188385 87.63515663 C-22.39099017 83.5902058 -22.42142455 79.54603987 -22.45410156 75.5012207 C-22.4490712 74.32301254 -22.44404083 73.14480438 -22.43885803 71.93089294 C-22.57951323 60.60669853 -25.00140038 48.5146383 -33 40 C-41.62023256 33.10684391 -51.95701518 30.32629552 -62.88671875 30.65234375 C-72.95622023 31.77679247 -82.75739061 35.33422035 -89.7421875 42.8828125 C-98.50806506 54.00370194 -100.29308024 64.88075062 -100.31884766 78.77172852 C-100.33391609 80.64638542 -100.33391609 80.64638542 -100.34928894 82.55891418 C-100.37474532 85.95913519 -100.39168238 89.359192 -100.40471697 92.75946927 C-100.42042981 96.32292415 -100.44719368 99.88629632 -100.4727478 103.44969177 C-100.51939211 110.18547771 -100.55620527 116.92127945 -100.58942068 123.65714353 C-100.62774394 131.33077631 -100.6771271 139.00432572 -100.72740483 146.67788804 C-100.8305111 162.45187098 -100.9183806 178.22588902 -101 194 C-116.84 193.67 -132.68 193.34 -149 193 C-149 126.67 -149 60.34 -149 -8 C-133.82 -8 -118.64 -8 -103 -8 C-102.67 -0.74 -102.34 6.52 -102 14 C-99.69 11.36 -97.38 8.72 -95 6 C-85.30392025 -4.4391438 -71.88881821 -10.50216603 -58 -13 C-56.88625 -13.226875 -55.7725 -13.45375 -54.625 -13.6875 C-34.86809796 -15.39068121 -16.12089785 -12.12965041 0 0 Z " fill="#FFFFFF" transform="translate(149,205)"/>
<path d="M0 0 C17.49 0 34.98 0 53 0 C53.96662012 2.89986035 54.26240774 5.18113621 54.49316406 8.21340942 C54.57723511 9.29309998 54.66130615 10.37279053 54.7479248 11.48519897 C54.83626587 12.66973663 54.92460693 13.85427429 55.015625 15.07470703 C55.15973816 16.94564026 55.15973816 16.94564026 55.3067627 18.85437012 C55.51522259 21.56670151 55.72230645 24.279098 55.92712402 26.99170303 C56.25084025 31.27718084 56.580506 35.56218802 56.91113281 39.84713745 C57.73121344 50.48773739 58.5431233 61.12895917 59.35400391 71.77026367 C59.98460728 80.0443475 60.61731178 88.31825954 61.25625229 96.59170425 C61.58528161 100.85537072 61.90994726 105.11934071 62.23136902 109.38358712 C62.47876528 112.65069644 62.73203813 115.91735115 62.984375 119.18408203 C63.07271606 120.37266815 63.16105713 121.56125427 63.2520752 122.78585815 C63.33614624 123.85990906 63.42021729 124.93395996 63.50683594 126.04055786 C63.57835876 126.97965563 63.64988159 127.9187534 63.72357178 128.88630867 C63.77934272 130.98248999 63.77934272 130.98248999 65 132 C65.48859497 131.09797852 65.48859497 131.09797852 65.98706055 130.17773438 C66.67989136 128.89866211 66.67989136 128.89866211 67.38671875 127.59375 C67.9062915 126.63452637 68.42586426 125.67530273 68.96118164 124.68701172 C70.12829479 122.53236668 71.29545089 120.37774491 72.46264648 118.22314453 C75.42139118 112.76127256 78.37958624 107.29910538 81.3359375 101.8359375 C87.03356695 91.3087742 92.74635367 80.79018139 98.48291016 70.28417969 C102.14685307 63.57115415 105.79591981 56.85018072 109.4375 50.125 C109.9739917 49.1345166 110.5104834 48.1440332 111.06323242 47.12353516 C113.85646377 41.96493617 116.64556112 36.80414389 119.4296875 31.640625 C120.2796228 30.06643799 120.2796228 30.06643799 121.14672852 28.46044922 C122.21113646 26.48888428 123.27425393 24.51662173 124.33569336 22.54345703 C128.43372479 14.95718446 132.69919381 7.47245378 137 0 C142.01301729 -0.02506123 147.02599666 -0.04302751 152.0390625 -0.05493164 C153.73796221 -0.05990387 155.43685777 -0.06668402 157.13574219 -0.07543945 C167.48016674 -0.12734477 177.68937063 0.06238177 188 1 C192.78735029 32.94141828 197.44118553 64.90025544 202 96.875 C202.12468784 97.74952694 202.24937569 98.62405388 202.37784195 99.52508163 C203.92096541 110.34971267 205.46165743 121.17468851 207 132 C209.69714277 128.52024241 211.65426326 124.89422901 213.5546875 120.9375 C213.89209457 120.24312836 214.22950165 119.54875671 214.57713318 118.83334351 C215.68098426 116.5577392 216.7781898 114.27900527 217.875 112 C218.64856014 110.40049462 219.42224318 108.80104867 220.19604492 107.20166016 C225.18256198 96.87427209 230.04219868 86.49469657 234.82910156 76.07324219 C240.180875 64.48486 245.81547782 53.03753167 251.43557739 41.5776062 C258.18125934 27.81564053 264.75681598 13.99873315 271 0 C275.88891238 -0.02503974 280.77778603 -0.0430178 285.66674805 -0.05493164 C287.32398124 -0.05990735 288.98121017 -0.06669032 290.63842773 -0.07543945 C300.48498217 -0.12605676 310.19175447 0.02674642 320 1 C319.42314339 4.42044948 318.57416373 7.22323662 317.01760864 10.31881714 C316.395709 11.56663467 316.395709 11.56663467 315.76124573 12.83966064 C315.30523483 13.73932556 314.84922394 14.63899048 314.37939453 15.56591797 C313.89948563 16.52456757 313.41957672 17.48321716 312.92512512 18.47091675 C311.33323813 21.64749256 309.7329693 24.81977058 308.1328125 27.9921875 C307.0165763 30.2165137 305.90093427 32.44113816 304.78585815 34.66604614 C302.13998322 39.94240191 299.48908013 45.21620972 296.83542907 50.48865712 C291.83786854 60.41853024 286.85117465 70.35385884 281.8659935 80.28995132 C280.24506938 83.51809444 278.62097667 86.74462652 276.99636841 89.97091675 C271.51699058 100.86831721 266.14396346 111.8072686 260.90498734 122.82233429 C256.80370434 131.43966069 252.57807157 139.99043769 248.3046875 148.5234375 C247.53798045 150.05752887 246.77139189 151.59167947 246.00491333 153.12588501 C244.42839392 156.2803714 242.85048411 159.4341568 241.27148438 162.58740234 C239.2456894 166.63318922 237.2236082 170.68082002 235.20249748 174.72894859 C233.63409471 177.86935042 232.06380545 181.00880585 230.49292374 184.14796829 C229.7451418 185.64286574 228.99795258 187.13805983 228.25136948 188.63355637 C227.22012404 190.69856962 226.1863482 192.76229564 225.15185547 194.82568359 C224.56548309 195.99763275 223.97911072 197.16958191 223.37496948 198.37704468 C222 201 222 201 221 202 C219.50129952 202.09831146 217.99801461 202.12798456 216.49609375 202.12939453 C215.05955444 202.13412277 215.05955444 202.13412277 213.59399414 202.13894653 C212.55235107 202.1369223 211.51070801 202.13489807 210.4375 202.1328125 C209.37587646 202.13376923 208.31425293 202.13472595 207.22045898 202.13571167 C204.97086528 202.13639364 202.72126963 202.13453819 200.47167969 202.13037109 C197.01492929 202.1250231 193.55830883 202.13031554 190.1015625 202.13671875 C187.92187471 202.13605797 185.742187 202.13477682 183.5625 202.1328125 C182.52085693 202.13483673 181.47921387 202.13686096 180.40600586 202.13894653 C179.44831299 202.13579437 178.49062012 202.13264221 177.50390625 202.12939453 C176.65642822 202.12859894 175.8089502 202.12780334 174.93579102 202.12698364 C173 202 173 202 172 201 C171.63819939 199.23946907 171.33339405 197.46719606 171.05126953 195.69215393 C170.77370819 193.96531876 170.77370819 193.96531876 170.49053955 192.20359802 C170.28998962 190.92928421 170.0894397 189.6549704 169.8828125 188.34204102 C169.66790184 186.99534446 169.4526222 185.64870675 169.23699951 184.30212402 C168.77248566 181.39630515 168.3105376 178.49009384 167.8505249 175.58355904 C167.12357929 170.99096251 166.39061768 166.39933896 165.65673828 161.80784607 C164.2321828 152.88992445 162.81357529 143.97106185 161.39578247 135.05206299 C159.59146347 123.70248047 157.78523171 112.35320674 155.97214317 101.00502151 C155.24260029 96.4374159 154.51640743 91.86929377 153.79277039 87.30074894 C153.3424449 84.46181087 152.88941238 81.62330966 152.43564606 78.78491974 C152.12466876 76.83428052 151.81702337 74.88311103 151.50946045 72.93193054 C151.23189911 71.20086563 151.23189911 71.20086563 150.94873047 69.43482971 C150.78871552 68.42768701 150.62870056 67.4205443 150.46383667 66.38288212 C150.10973642 63.99607405 150.10973642 63.99607405 149 62 C148.63874023 62.7027002 148.27748047 63.40540039 147.90527344 64.12939453 C141.71824134 76.14974653 135.52389284 88.15795762 129 100 C124.53722102 108.10205119 120.23621989 116.27729371 116 124.5 C111.76377781 132.72271075 107.46262956 140.8978647 103 149 C97.86711006 158.32083797 92.93937668 167.74046693 88.0703125 177.20117188 C83.7903554 185.51260515 79.40099728 193.74813009 75 202 C58.17 202 41.34 202 24 202 C20.97628765 179.7437076 18.20488782 157.46910029 15.5558424 135.1658206 C15.11913271 131.49126864 14.68105288 127.81688051 14.24298692 124.14249003 C13.21122846 115.4882816 12.18154388 106.8338283 11.15332031 98.17919922 C10.09486509 89.27036725 9.03312295 80.36193129 7.96978927 71.4536804 C7.05080251 63.75391766 6.13363439 56.05393986 5.21797776 48.35378039 C4.6735324 43.77536005 4.1284409 39.19701916 3.58165741 34.61887741 C3.07061325 30.33919108 2.56184592 26.05924018 2.05485535 21.77907181 C1.86861489 20.20999823 1.68157279 18.64101956 1.49367523 17.07214355 C1.23773378 14.93403789 0.98467881 12.79560982 0.73236084 10.65707397 C0.59006924 9.46083593 0.44777763 8.26459789 0.30117416 7.03211021 C0 4 0 4 0 0 Z " fill="#0193E1" transform="translate(1007,197)"/>
<path d="M0 0 C16.17 0 32.34 0 49 0 C47.87500151 10.12498644 47.87500151 10.12498644 46.87350464 14.70744324 C46.64774529 15.75117064 46.42198595 16.79489805 46.18938541 17.87025356 C45.94239116 18.98967877 45.6953969 20.10910398 45.44091797 21.26245117 C45.17783813 22.4722593 44.91475828 23.68206743 44.64370632 24.92853642 C43.91745658 28.26389614 43.1871212 31.59831222 42.45501161 34.93238735 C41.66556062 38.53246034 40.88147052 42.13370111 40.09672546 45.73480225 C38.73919296 51.96089095 37.37833289 58.18624461 36.01516724 64.41110229 C34.04559412 73.40513758 32.08101615 82.40025807 30.11772835 91.3956672 C27.13519164 105.06064141 24.14954453 118.72493344 21.16154754 132.38871467 C16.80525336 152.30967389 12.4570673 172.23239407 8.11238861 192.15588951 C4.92987504 206.74993035 1.74622357 221.34372309 -1.4375 235.9375 C-1.60818654 236.71991798 -1.77887308 237.50233596 -1.95473194 238.30846357 C-3.93239537 247.37385366 -5.91050326 256.43914642 -7.89001173 265.50413382 C-8.6361111 268.92083947 -9.38202447 272.33758542 -10.12740517 275.75444794 C-10.93389651 279.45092493 -11.74113657 283.14723761 -12.54858398 286.84350586 C-12.78465929 287.92631427 -13.0207346 289.00912268 -13.2639637 290.12474346 C-13.4798609 291.11228524 -13.69575809 292.09982702 -13.91819763 293.11729431 C-14.1043183 293.96983764 -14.29043898 294.82238096 -14.48219967 295.70075893 C-14.95672166 297.80782682 -15.476162 299.90464801 -16 302 C-32.17 302 -48.34 302 -65 302 C-63.76441909 294.58651452 -62.49801116 287.28115993 -60.89404297 279.95483398 C-60.69089383 279.01572206 -60.48774469 278.07661013 -60.27843952 277.10904026 C-59.60243427 273.98745563 -58.92232351 270.86678075 -58.2421875 267.74609375 C-57.74929781 265.47441715 -57.25665478 263.20268702 -56.76423645 260.9309082 C-55.41974614 254.73174549 -54.07161202 248.53338021 -52.72280502 242.33515549 C-51.43967675 236.43616712 -50.15925008 230.5365928 -48.87866628 224.6370517 C-45.26642013 207.9967887 -41.64708907 191.35806855 -38.02684784 174.71954346 C-36.97838884 169.90078773 -35.93012768 165.08198898 -34.88189697 160.26318359 C-26.66631719 122.4957876 -18.44642858 84.72933077 -10.21941328 46.96442407 C-9.78476721 44.9692363 -9.35013869 42.9740447 -8.91551399 40.97885227 C-8.39834622 38.60478525 -7.88113892 36.23072683 -7.36387444 33.85668087 C-4.9055935 22.57191269 -2.45344042 11.28582595 0 0 Z " fill="#0193E1" transform="translate(705,95)"/>
<path d="M0 0 C16.17 0 32.34 0 49 0 C49 98.67 49 197.34 49 299 C32.83 299 16.66 299 0 299 C0 200.33 0 101.66 0 0 Z " fill="#FFFFFF" transform="translate(359,99)"/>
<path d="M0 0 C-1.11975923 3.35927769 -1.73602602 3.80914756 -4.515625 5.79296875 C-5.63481323 6.60266113 -5.63481323 6.60266113 -6.77661133 7.42871094 C-7.59282959 8.00911133 -8.40904785 8.58951172 -9.25 9.1875 C-10.98950401 10.44492476 -12.72773913 11.70410636 -14.46484375 12.96484375 C-15.37347168 13.62339355 -16.28209961 14.28194336 -17.21826172 14.96044922 C-21.80234709 18.3214681 -26.30433024 21.78822269 -30.8125 25.25 C-36.83115941 29.85227706 -42.85799474 34.43804403 -49 38.875 C-50.051875 39.63554687 -51.10375 40.39609375 -52.1875 41.1796875 C-55 43 -55 43 -60 45 C-60 37.08 -60 29.16 -60 21 C-74.15961914 23.31924796 -89.64305371 26.53707794 -100.15625 37.18359375 C-102 39 -102 39 -104 39 C-104.26296875 39.57878906 -104.5259375 40.15757812 -104.796875 40.75390625 C-106.06060061 43.11313426 -107.51616016 44.90297172 -109.25 46.9375 C-119.86905423 60.47679414 -123.64297036 77.40522563 -121.6015625 94.296875 C-119.72290218 105.08087318 -115.05399345 114.91900983 -109 124 C-108.9921875 125.90234375 -108.9921875 125.90234375 -110 128 C-112.01308103 129.67557635 -113.95674691 131.11719197 -116.125 132.5625 C-117.39143585 133.43502216 -118.65703021 134.30876671 -119.921875 135.18359375 C-120.58509766 135.63847168 -121.24832031 136.09334961 -121.93164062 136.56201172 C-125.46160097 139.01615081 -128.91585267 141.5724941 -132.375 144.125 C-133.65360928 145.06515388 -134.93225183 146.00526252 -136.2109375 146.9453125 C-137.13132812 147.62335938 -138.05171875 148.30140625 -139 149 C-146.53687345 146.2258958 -150.57688163 135.16328816 -153.85571289 128.22973633 C-159.31214676 116.15050558 -162.49953218 103.27327707 -163 90 C-163.03996094 89.31679688 -163.07992187 88.63359375 -163.12109375 87.9296875 C-163.93877052 62.62980633 -155.11774156 38.31976368 -139 19 C-138.21753906 18.05382812 -137.43507813 17.10765625 -136.62890625 16.1328125 C-102.38191738 -23.42930904 -42.62257829 -28.41505219 0 0 Z " fill="#45C8ED" transform="translate(927,209)"/>
<path d="M0 0 C1.52373457 2.03266191 2.89915849 4.04300063 4.25 6.1875 C4.65114014 6.82099365 5.05228027 7.4544873 5.46557617 8.10717773 C20.160516 31.79168588 25.05605517 59.96611519 19.03515625 87.2421875 C14.35257211 104.24085145 6.97902687 119.92664114 -5 133 C-5.82113281 133.91394531 -6.64226562 134.82789063 -7.48828125 135.76953125 C-25.37248244 154.71353696 -51.04015769 166.18631353 -77.0859375 167.203125 C-100.32237955 167.63237959 -121.74087955 162.31195938 -141 149 C-139.58931899 145.63932693 -138.0217891 143.96581036 -135.09765625 141.8203125 C-134.2994043 141.22839111 -133.50115234 140.63646973 -132.67871094 140.02661133 C-131.38368652 139.08531372 -131.38368652 139.08531372 -130.0625 138.125 C-128.72300293 137.13632935 -128.72300293 137.13632935 -127.35644531 136.12768555 C-124.57627452 134.07778665 -121.78841934 132.03865861 -119 130 C-116.53558646 128.18608196 -114.07313108 126.36953173 -111.61083984 124.55273438 C-110.0434298 123.39735705 -108.47475356 122.24369541 -106.90478516 121.09179688 C-103.02244367 118.24186278 -99.15821412 115.37176928 -95.32421875 112.45703125 C-94.58461914 111.89588623 -93.84501953 111.33474121 -93.08300781 110.7565918 C-91.68466199 109.6931934 -90.28931841 108.62583191 -88.89746094 107.55395508 C-84.22072225 104 -84.22072225 104 -82 104 C-82 111.92 -82 119.84 -82 128 C-64.72848239 125.04254835 -51.20663911 121.20721777 -38 109 C-37.37738281 108.43152344 -36.75476563 107.86304688 -36.11328125 107.27734375 C-24.29246507 95.19089125 -19.49463973 77.97721929 -19.57543945 61.55810547 C-19.89900951 50.02862258 -23.35219495 40.0306443 -29 30 C-29.39832031 29.28457031 -29.79664063 28.56914062 -30.20703125 27.83203125 C-31.12201968 26.21221075 -32.05827343 24.60442305 -33 23 C-24.96260702 16.20922307 -16.64177199 9.99231854 -8 4 C-7.44521973 3.61021973 -6.89043945 3.22043945 -6.31884766 2.81884766 C-2.23232323 0 -2.23232323 0 0 0 Z " fill="#0293E0" transform="translate(949,230)"/>
<path d="M0 0 C1.98 0 3.96 0 6 0 C6.77512547 1.8106686 7.54484187 3.62365291 8.3125 5.4375 C8.74175781 6.44683594 9.17101563 7.45617187 9.61328125 8.49609375 C11.23871298 12.60317054 12.60321411 16.80964234 14 21 C16.64 14.07 19.28 7.14 22 0 C23.98 0 25.96 0 28 0 C28 10.89 28 21.78 28 33 C26.35 33 24.7 33 23 33 C22.67 27.06 22.34 21.12 22 15 C20.55642763 19.5552313 20.55642763 19.5552313 19.15942383 24.12475586 C18.58203125 25.83984375 18.58203125 25.83984375 17 29 C15.35 29.33 13.7 29.66 12 30 C10.02 24.72 8.04 19.44 6 14 C5.67 20.6 5.34 27.2 5 34 C3.35 34 1.7 34 0 34 C0 22.78 0 11.56 0 0 Z M23 9 C24 11 24 11 24 11 Z " fill="#0692DD" transform="translate(1375,197)"/>
<path d="M0 0 C8.25 0 16.5 0 25 0 C25 1.65 25 3.3 25 5 C21.7 5 18.4 5 15 5 C15 14.57 15 24.14 15 34 C13.35 34 11.7 34 10 34 C10 24.43 10 14.86 10 5 C7.03 5 4.06 5 1 5 C0.67 3.35 0.34 1.7 0 0 Z " fill="#0398C9" transform="translate(1345,197)"/>
<path d="M0 0 C4.29 0.66 8.58 1.32 13 2 C13 1.34 13 0.68 13 0 C16.96 0 20.92 0 25 0 C25 0.66 25 1.32 25 2 C26.32 2 27.64 2 29 2 C29 1.34 29 0.68 29 0 C32.96 0 36.92 0 41 0 C41 0.66 41 1.32 41 2 C42.32 2 43.64 2 45 2 C45 1.34 45 0.68 45 0 C47.475 0.495 47.475 0.495 50 1 C50 1.66 50 2.32 50 3 C33.5 3 17 3 0 3 C0 2.01 0 1.02 0 0 Z " fill="#1F8BBE" transform="translate(1031,396)"/>
<path d="M0 0 C4.95 0 9.9 0 15 0 C15 0.66 15 1.32 15 2 C16.32 2 17.64 2 19 2 C19 1.34 19 0.68 19 0 C22.96 0 26.92 0 31 0 C31 0.66 31 1.32 31 2 C32.32 2 33.64 2 35 2 C35 1.34 35 0.68 35 0 C37.97 0.33 40.94 0.66 44 1 C43.67 1.66 43.34 2.32 43 3 C28.48 3 13.96 3 -1 3 C-0.67 2.01 -0.34 1.02 0 0 Z " fill="#1F8BBF" transform="translate(1185,396)"/>
<path d="M0 0 C7.92 0 15.84 0 24 0 C24 1.32 24 2.64 24 4 C16.307359 4.84800767 8.73708326 5.12152487 1 5 C0.67 3.35 0.34 1.7 0 0 Z " fill="#0193E1" transform="translate(1345,197)"/>
<path d="M0 0 C0.33 0 0.66 0 1 0 C1.34199953 3.74926076 1.67194171 7.49949574 2 11.25 C2.14308594 12.81621094 2.14308594 12.81621094 2.2890625 14.4140625 C2.91252127 21.62837115 3.11692847 28.76017868 3 36 C2.01 36 1.02 36 0 36 C-1.6625075 32.67498499 -1.14485823 28.96535004 -1.125 25.3125 C-1.12306641 24.46776123 -1.12113281 23.62302246 -1.11914062 22.75268555 C-1.06759296 15.13866582 -0.6350565 7.58665717 0 0 Z " fill="#168FC9" transform="translate(1061,214)"/>
<path d="M0 0 C0.66 0 1.32 0 2 0 C2 2.64 2 5.28 2 8 C4.64 8 7.28 8 10 8 C10 8.99 10 9.98 10 11 C10.66 11 11.32 11 12 11 C12 10.34 12 9.68 12 9 C14.76452033 7.61773984 17.0461363 7.90474613 20.125 7.9375 C21.22070312 7.94652344 22.31640625 7.95554687 23.4453125 7.96484375 C24.28835938 7.97644531 25.13140625 7.98804688 26 8 C26 8.66 26 9.32 26 10 C22.04 10 18.08 10 14 10 C14 10.66 14 11.32 14 12 C12.04082341 11.9131252 10.08258129 11.80495488 8.125 11.6875 C7.03445313 11.62949219 5.94390625 11.57148438 4.8203125 11.51171875 C3.88960937 11.34285156 2.95890625 11.17398437 2 11 C-0.67927341 6.98108988 -0.15601248 4.75838077 0 0 Z " fill="#0F90CF" transform="translate(1030,386)"/>
<path d="M0 0 C0.66 0 1.32 0 2 0 C1.25403037 7.4596963 -0.36746129 14.68951218 -2 22 C-2.1546875 21.0409375 -2.1546875 21.0409375 -2.3125 20.0625 C-2.539375 19.381875 -2.76625 18.70125 -3 18 C-3.99 17.67 -4.98 17.34 -6 17 C-6.1953125 10.9453125 -6.1953125 10.9453125 -6 9 C-5.34 8.34 -4.68 7.68 -4 7 C-2.68 7 -1.36 7 0 7 C0 4.69 0 2.38 0 0 Z " fill="#0A92CF" transform="translate(704,316)"/>
<path d="M0 0 C0.33 0 0.66 0 1 0 C1 1.65 1 3.3 1 5 C-2.3 5 -5.6 5 -9 5 C-9 14.57 -9 24.14 -9 34 C-9.33 34 -9.66 34 -10 34 C-10 25.75 -10 17.5 -10 9 C-11.32 8.67 -12.64 8.34 -14 8 C-14 7.01 -14 6.02 -14 5 C-10.85069107 3.95023036 -8.61185544 3.89868405 -5.3125 3.9375 C-4.31863281 3.94652344 -3.32476563 3.95554688 -2.30078125 3.96484375 C-1.16189453 3.98224609 -1.16189453 3.98224609 0 4 C0 2.68 0 1.36 0 0 Z " fill="#1690BB" transform="translate(1369,197)"/>
<path d="M0 0 C0.33 0 0.66 0 1 0 C1.33965474 2.18652739 1.67142477 4.37428025 2 6.5625 C2.185625 7.78066406 2.37125 8.99882812 2.5625 10.25390625 C2.98555077 13.87627848 3.07501425 17.35712046 3 21 C1.68 21 0.36 21 -1 21 C-1.18451025 6.21867882 -1.18451025 6.21867882 0 0 Z " fill="#2288C6" transform="translate(1197,217)"/>
<path d="M0 0 C0.66 0 1.32 0 2 0 C2.13277344 0.63808594 2.26554687 1.27617187 2.40234375 1.93359375 C2.57894531 2.75988281 2.75554687 3.58617187 2.9375 4.4375 C3.19853516 5.67306641 3.19853516 5.67306641 3.46484375 6.93359375 C3.80752994 8.97661204 3.80752994 8.97661204 5 10 C5.02172852 11.76586914 5.02172852 11.76586914 4.87890625 14.03515625 C4.80639648 15.24848633 4.80639648 15.24848633 4.73242188 16.48632812 C4.67634766 17.33646484 4.62027344 18.18660156 4.5625 19.0625 C4.51029297 19.91650391 4.45808594 20.77050781 4.40429688 21.65039062 C4.27421239 23.76721995 4.13770029 25.88365244 4 28 C3.67 28 3.34 28 3 28 C2.01 18.76 1.02 9.52 0 0 Z " fill="#1E8BC2" transform="translate(1023,332)"/>
<path d="M0 0 C-0.96355353 9.41002278 -0.96355353 9.41002278 -2 14 C-2.33 12.68 -2.66 11.36 -3 10 C-3.99 10 -4.98 10 -6 10 C-6.8125 7.8125 -6.8125 7.8125 -7 5 C-2.88888889 0 -2.88888889 0 0 0 Z " fill="#0994C7" transform="translate(560,252)"/>
<path d="M0 0 C0.33 1.32 0.66 2.64 1 4 C2.32 4.33 3.64 4.66 5 5 C3.25 10.75 3.25 10.75 1 13 C0.01 13 -0.98 13 -2 13 C-1.85769192 11.58297487 -1.71099254 10.1663904 -1.5625 8.75 C-1.48128906 7.96109375 -1.40007813 7.1721875 -1.31640625 6.359375 C-1.02365007 4.17635361 -0.57935581 2.1226818 0 0 Z " fill="#0D90D4" transform="translate(674,238)"/>
<path d="M0 0 C1.32 0 2.64 0 4 0 C4.08133791 1.91595968 4.13934367 3.83291932 4.1875 5.75 C4.22230469 6.81734375 4.25710938 7.8846875 4.29296875 8.984375 C4 12 4 12 1 16 C0.67 10.72 0.34 5.44 0 0 Z " fill="#1D8DC5" transform="translate(1008,202)"/>
<path d="M0 0 C1.485 0.99 1.485 0.99 3 2 C3.34057617 4.33837891 3.34057617 4.33837891 3.29296875 7.2265625 C3.28330078 8.2578125 3.27363281 9.2890625 3.26367188 10.3515625 C3.23853516 11.43179687 3.21339844 12.51203125 3.1875 13.625 C3.17396484 14.71296875 3.16042969 15.8009375 3.14648438 16.921875 C3.11104754 19.61507409 3.06164331 22.30729374 3 25 C2.67 25 2.34 25 2 25 C1.66068773 22.33397504 1.32842824 19.66736986 1 17 C0.90460937 16.25621094 0.80921875 15.51242187 0.7109375 14.74609375 C0.10772324 9.79111949 -0.09075591 4.99157504 0 0 Z " fill="#188CC8" transform="translate(1016,268)"/>
<path d="M0 0 C0.33 0 0.66 0 1 0 C1 1.65 1 3.3 1 5 C1.99 5 2.98 5 4 5 C3.34 7.97 2.68 10.94 2 14 C0.68 14.33 -0.64 14.66 -2 15 C-1.03644647 4.44191344 -1.03644647 4.44191344 0 0 Z " fill="#188CCF" transform="translate(482,375)"/>
<path d="M0 0 C0.33 0 0.66 0 1 0 C1.99 7.26 2.98 14.52 4 22 C3.01 22.33 2.02 22.66 1 23 C0.15808218 20.0751367 -0.11819313 17.49258344 -0.09765625 14.453125 C-0.09443359 13.60878906 -0.09121094 12.76445312 -0.08789062 11.89453125 C-0.07951172 11.02183594 -0.07113281 10.14914062 -0.0625 9.25 C-0.05798828 8.36183594 -0.05347656 7.47367187 -0.04882812 6.55859375 C-0.037074 4.37232671 -0.02064249 2.18619821 0 0 Z " fill="#178DCC" transform="translate(1205,273)"/>
<path d="M0 0 C5.61 0 11.22 0 17 0 C17 0.66 17 1.32 17 2 C15.39318359 2.07347656 15.39318359 2.07347656 13.75390625 2.1484375 C12.35674361 2.22345294 10.9596095 2.2990013 9.5625 2.375 C8.85544922 2.4059375 8.14839844 2.436875 7.41992188 2.46875 C5.60760812 2.57280629 3.80182012 2.77919892 2 3 C1.67 3.66 1.34 4.32 1 5 C-0.32 4.67 -1.64 4.34 -3 4 C-2.34 4 -1.68 4 -1 4 C-0.67 2.68 -0.34 1.36 0 0 Z " fill="#128ED3" transform="translate(1183,394)"/>
<path d="M0 0 C1.32 0 2.64 0 4 0 C3.67 5.61 3.34 11.22 3 17 C2.67 17 2.34 17 2 17 C1.66151348 15.10507994 1.32943089 13.20901534 1 11.3125 C0.814375 10.25675781 0.62875 9.20101563 0.4375 8.11328125 C0.04931926 5.35095938 -0.08259976 2.78257957 0 0 Z " fill="#1F8BBC" transform="translate(1168,324)"/>
<path d="M0 0 C0.33 0 0.66 0 1 0 C1.22162329 1.62324086 1.42689803 3.248721 1.625 4.875 C1.74101563 5.77992188 1.85703125 6.68484375 1.9765625 7.6171875 C1.98429688 8.40351563 1.99203125 9.18984375 2 10 C1.34 10.66 0.68 11.32 0 12 C0.061875 13.423125 0.061875 13.423125 0.125 14.875 C0 18 0 18 -2.0078125 20.1953125 C-2.99394531 21.08863281 -2.99394531 21.08863281 -4 22 C-2.92373883 14.59211729 -1.72864339 7.28499714 0 0 Z " fill="#158FCF" transform="translate(666,274)"/>
<path d="M0 0 C0.66 0 1.32 0 2 0 C2.05386629 2.12472576 2.09273071 4.24983652 2.125 6.375 C2.14820313 7.55835938 2.17140625 8.74171875 2.1953125 9.9609375 C2 13 2 13 0 15 C-0.46006346 17.20250992 -0.46006346 17.20250992 -0.625 19.625 C-0.69976563 20.44226563 -0.77453125 21.25953125 -0.8515625 22.1015625 C-0.92503906 23.04128906 -0.92503906 23.04128906 -1 24 C-1.33 24 -1.66 24 -2 24 C-2.02698189 22.37509046 -2.04638757 20.75005367 -2.0625 19.125 C-2.07410156 18.22007812 -2.08570313 17.31515625 -2.09765625 16.3828125 C-2 14 -2 14 -1 12 C-0.77141886 9.9625237 -0.58975722 7.91959697 -0.4375 5.875 C-0.35371094 4.77929688 -0.26992188 3.68359375 -0.18359375 2.5546875 C-0.12300781 1.71164063 -0.06242188 0.86859375 0 0 Z " fill="#118ED1" transform="translate(1012,202)"/>
<path d="M0 0 C0.33 0.99 0.66 1.98 1 3 C1.99 3 2.98 3 4 3 C3.67 5.97 3.34 8.94 3 12 C1.35 12 -0.3 12 -2 12 C-1.34 8.04 -0.68 4.08 0 0 Z " fill="#1A8AC4" transform="translate(642,385)"/>
<path d="M0 0 C1.32 0 2.64 0 4 0 C4 3.63 4 7.26 4 11 C3.01 11.33 2.02 11.66 1 12 C0.67 8.04 0.34 4.08 0 0 Z " fill="#178FD2" transform="translate(1160,274)"/>
<path d="M0 0 C0.33 0 0.66 0 1 0 C1 1.98 1 3.96 1 6 C0.01 6.495 0.01 6.495 -1 7 C-1.433125 8.6396875 -1.433125 8.6396875 -1.875 10.3125 C-3.02457251 14.08054322 -4.03213219 15.52677682 -7 18 C-6.35534798 13.66695924 -4.81074878 10.13327935 -2.9375 6.1875 C-2.11572266 4.44533203 -2.11572266 4.44533203 -1.27734375 2.66796875 C-0.85582031 1.78753906 -0.43429687 0.90710937 0 0 Z " fill="#0A91DE" transform="translate(554,46)"/>
<path d="M0 0 C0.33 0.99 0.66 1.98 1 3 C1.66 3 2.32 3 3 3 C1.44499019 6.81684226 -1.03595495 9.19195732 -4 12 C-4.66 11.67 -5.32 11.34 -6 11 C-4.02 7.37 -2.04 3.74 0 0 Z " fill="#0993CF" transform="translate(1107,265)"/>
<path d="M0 0 C0.95827504 3.04498611 0.99431517 5.02273931 0.22265625 8.109375 C-0.05288086 9.24052734 -0.05288086 9.24052734 -0.33398438 10.39453125 C-0.53314453 11.17183594 -0.73230469 11.94914063 -0.9375 12.75 C-1.23043945 13.93916016 -1.23043945 13.93916016 -1.52929688 15.15234375 C-2.01124079 17.10362885 -2.50452088 19.05210783 -3 21 C-5.12972929 17.15168607 -5.08121584 15.32486338 -4 11 C-3.28654977 8.92271674 -2.52471079 6.87514185 -1.71875 4.83203125 C-1.09438898 3.2405893 -0.54060283 1.62180848 0 0 Z " fill="#148DCB" transform="translate(649,168)"/>
<path d="M0 0 C0.99 0.33 1.98 0.66 3 1 C2.01 5.95 1.02 10.9 0 16 C-0.33 16 -0.66 16 -1 16 C-1.85330338 10.16524985 -2.48351814 5.55139349 0 0 Z " fill="#168DCC" transform="translate(534,369)"/>
<path d="M0 0 C0.33 0 0.66 0 1 0 C2.5625 10.15625 2.5625 10.15625 0 14 C-0.66 14 -1.32 14 -2 14 C-1.03644647 4.58997722 -1.03644647 4.58997722 0 0 Z " fill="#208AC3" transform="translate(690,164)"/>
<path d="M0 0 C0.33 0 0.66 0 1 0 C1.3606725 7.14665888 1.13763838 13.45125935 -2 20 C-2.66 20.66 -3.32 21.32 -4 22 C-2.81034913 14.63428929 -1.51922091 7.30518993 0 0 Z " fill="#198ECB" transform="translate(538,97)"/>
<path d="M0 0 C1.65 0 3.3 0 5 0 C4.34 3.3 3.68 6.6 3 10 C2.67 8.68 2.34 7.36 2 6 C1.01 5.67 0.02 5.34 -1 5 C-0.67 3.35 -0.34 1.7 0 0 Z " fill="#1890C2" transform="translate(667,24)"/>
<path d="M0 0 C0.99 0.33 1.98 0.66 3 1 C3 6.28 3 11.56 3 17 C2.67 17 2.34 17 2 17 C1.66151348 15.10507994 1.32943089 13.20901534 1 11.3125 C0.814375 10.25675781 0.62875 9.20101563 0.4375 8.11328125 C0.04931926 5.35095938 -0.08259976 2.78257957 0 0 Z " fill="#178DC8" transform="translate(1176,374)"/>
<path d="M0 0 C1.32 0 2.64 0 4 0 C3.88490339 1.41750563 3.75746342 2.83401169 3.625 4.25 C3.55539062 5.03890625 3.48578125 5.8278125 3.4140625 6.640625 C3 9 3 9 1 13 C0.67 8.71 0.34 4.42 0 0 Z " fill="#1D88D3" transform="translate(732,178)"/>
<path d="M0 0 C1.32 0 2.64 0 4 0 C3.34 3.96 2.68 7.92 2 12 C-0.35333796 7.29332409 -0.17102038 5.1306114 0 0 Z " fill="#228CC1" transform="translate(588,96)"/>
<path d="M0 0 C0.33 0 0.66 0 1 0 C1 2.31 1 4.62 1 7 C0.01 7 -0.98 7 -2 7 C-2 8.65 -2 10.3 -2 12 C-3.98 12.99 -3.98 12.99 -6 14 C-4.50829734 9.0276578 -2.39542583 4.58154261 0 0 Z " fill="#168DC8" transform="translate(1274,206)"/>
<path d="M0 0 C1.49341969 2.98683937 0.40648676 4.95160978 -0.4375 8.125 C-0.72496094 9.22070312 -1.01242187 10.31640625 -1.30859375 11.4453125 C-1.53675781 12.28835938 -1.76492188 13.13140625 -2 14 C-2.33 14 -2.66 14 -3 14 C-3.33 10.7 -3.66 7.4 -4 4 C-3.01 3.67 -2.02 3.34 -1 3 C-0.67 2.01 -0.34 1.02 0 0 Z " fill="#138FCC" transform="translate(968,310)"/>
<path d="M0 0 C0.33 0 0.66 0 1 0 C1 1.65 1 3.3 1 5 C1.66 5 2.32 5 3 5 C3 5.66 3 6.32 3 7 C2.01 7 1.02 7 0 7 C0.33 9.31 0.66 11.62 1 14 C0.01 14.33 -0.98 14.66 -2 15 C-1.03644647 4.44191344 -1.03644647 4.44191344 0 0 Z " fill="#2188C8" transform="translate(498,295)"/>
<path d="M0 0 C0.33 0 0.66 0 1 0 C0.41509121 6.14154225 -0.54066252 12.00679849 -2 18 C-2.33 18 -2.66 18 -3 18 C-3.37634203 11.19796625 -2.77471079 6.24309927 0 0 Z " fill="#138ECC" transform="translate(712,283)"/>
<path d="M0 0 C1.625 1.625 1.625 1.625 3 4 C2.1875 7.25 2.1875 7.25 1 10 C0.01 10 -0.98 10 -2 10 C-1.54177532 6.53058454 -1.10868317 3.32604951 0 0 Z " fill="#198BCE" transform="translate(546,64)"/>
<path d="M0 0 C0.99 0 1.98 0 3 0 C2.88512252 1.58409994 2.75765492 3.16728963 2.625 4.75 C2.52058594 6.07257813 2.52058594 6.07257813 2.4140625 7.421875 C2.00149945 9.99066382 1.28839043 11.75841015 0 14 C-0.33 11.36 -0.66 8.72 -1 6 C-0.34 6 0.32 6 1 6 C0.67 4.02 0.34 2.04 0 0 Z " fill="#208BBC" transform="translate(701,324)"/>
<path d="M0 0 C0.33 0.66 0.66 1.32 1 2 C1.66 2 2.32 2 3 2 C2.67 3.65 2.34 5.3 2 7 C0.68 7 -0.64 7 -2 7 C-2 7.66 -2 8.32 -2 9 C-2.66 8.67 -3.32 8.34 -4 8 C-2.68 5.36 -1.36 2.72 0 0 Z " fill="#1B8DD9" transform="translate(1250,256)"/>
<path d="M0 0 C0.66 0 1.32 0 2 0 C1.03644647 9.41002278 1.03644647 9.41002278 0 14 C-0.33 14 -0.66 14 -1 14 C-2.12029814 8.51053913 -1.79217969 5.16569441 0 0 Z " fill="#1590D1" transform="translate(750,104)"/>
<path d="M0 0 C3 1 3 1 3.9375 2.8125 C4 5 4 5 2.0625 7.25 C1.381875 7.8275 0.70125 8.405 0 9 C-0.66 8.67 -1.32 8.34 -2 8 C-1.34 5.36 -0.68 2.72 0 0 Z " fill="#1C8BC7" transform="translate(705,96)"/>
<path d="M0 0 C0.33 0 0.66 0 1 0 C1.02694851 1.95825873 1.04637218 3.91662226 1.0625 5.875 C1.07410156 6.96554687 1.08570313 8.05609375 1.09765625 9.1796875 C1 12 1 12 0 14 C-0.66 14 -1.32 14 -2 14 C-1.85795259 12.41632253 -1.71119847 10.83306682 -1.5625 9.25 C-1.48128906 8.36828125 -1.40007813 7.4865625 -1.31640625 6.578125 C-1.03761535 4.30649548 -0.61209423 2.20148177 0 0 Z " fill="#1F8CC5" transform="translate(650,348)"/>
<path d="M0 0 C1.12758089 3.38274266 0.81750262 4.76778223 0.0625 8.1875 C-0.13214844 9.08855469 -0.32679688 9.98960937 -0.52734375 10.91796875 C-0.68332031 11.60503906 -0.83929687 12.29210937 -1 13 C-1.33 13 -1.66 13 -2 13 C-2 11.35 -2 9.7 -2 8 C-2.66 8 -3.32 8 -4 8 C-4 6.68 -4 5.36 -4 4 C-3.01 4 -2.02 4 -1 4 C-0.67 2.68 -0.34 1.36 0 0 Z " fill="#1E8CCB" transform="translate(543,332)"/>
<path d="M0 0 C0.66 0 1.32 0 2 0 C1.03644647 9.41002278 1.03644647 9.41002278 0 14 C-0.33 14 -0.66 14 -1 14 C-1.02685938 11.85423363 -1.04633088 9.70837355 -1.0625 7.5625 C-1.07410156 6.36753906 -1.08570313 5.17257813 -1.09765625 3.94140625 C-1 1 -1 1 0 0 Z " fill="#1A8CC6" transform="translate(726,214)"/>
<path d="M0 0 C0.66 0 1.32 0 2 0 C1.48041715 4.37934119 0.94324258 8.68803391 0 13 C-0.33 13 -0.66 13 -1 13 C-1.22245393 11.39773045 -1.42746669 9.79303233 -1.625 8.1875 C-1.74101563 7.29417969 -1.85703125 6.40085938 -1.9765625 5.48046875 C-2 3 -2 3 0 0 Z " fill="#168CCF" transform="translate(582,134)"/>
<path d="M0 0 C1.32 0 2.64 0 4 0 C3.67 2.97 3.34 5.94 3 9 C2.67 8.01 2.34 7.02 2 6 C1.34 6 0.68 6 0 6 C0 4.02 0 2.04 0 0 Z " fill="#0C92CC" transform="translate(548,292)"/>
<path d="M0 0 C1.32 0 2.64 0 4 0 C3.48041715 4.37934119 2.94324258 8.68803391 2 13 C1.67 13 1.34 13 1 13 C1.01160156 12.39671875 1.02320313 11.7934375 1.03515625 11.171875 C1.04417969 10.37265625 1.05320312 9.5734375 1.0625 8.75 C1.07410156 7.96109375 1.08570313 7.1721875 1.09765625 6.359375 C1.00385306 4.09308998 0.63241063 2.1711105 0 0 Z " fill="#218CC1" transform="translate(716,252)"/>
<path d="M0 0 C0.66 0.99 1.32 1.98 2 3 C1.34 3.66 0.68 4.32 0 5 C-0.33 4.34 -0.66 3.68 -1 3 C-3.02463255 2.34786708 -3.02463255 2.34786708 -5 2 C-5 2.66 -5 3.32 -5 4 C-6.32 3.67 -7.64 3.34 -9 3 C-8.34 3 -7.68 3 -7 3 C-7 2.34 -7 1.68 -7 1 C-4.46578263 -0.26710868 -2.80561762 -0.28056176 0 0 Z " fill="#0C95CF" transform="translate(1081,394)"/>
<path d="M0 0 C0.33 0.66 0.66 1.32 1 2 C0.22265625 3.7265625 0.22265625 3.7265625 -0.9375 5.625 C-1.618125 6.73875 -2.29875 7.8525 -3 9 C-3.33 9 -3.66 9 -4 9 C-4 6.69 -4 4.38 -4 2 C-2.68 1.34 -1.36 0.68 0 0 Z " fill="#108FD0" transform="translate(1144,278)"/>
<path d="M0 0 C0.33 0.99 0.66 1.98 1 3 C1.66 3 2.32 3 3 3 C3.33 3.99 3.66 4.98 4 6 C2.02 6.99 0.04 7.98 -2 9 C-1.34 6.03 -0.68 3.06 0 0 Z " fill="#5CBEE1" transform="translate(770,259)"/>
<path d="M0 0 C2.33944736 0.28730055 4.6739143 0.61936779 7 1 C6.01 1.33 5.02 1.66 4 2 C4 2.99 4 3.98 4 5 C2.68 5 1.36 5 0 5 C-0.5625 3.0625 -0.5625 3.0625 -1 1 C-0.67 0.67 -0.34 0.34 0 0 Z " fill="#1F89DE" transform="translate(400,465)"/>
<path d="M0 0 C-1.65 1.32 -3.3 2.64 -5 4 C-6.32 3.34 -7.64 2.68 -9 2 C-9 1.34 -9 0.68 -9 0 C-2.25 -1.125 -2.25 -1.125 0 0 Z " fill="#5AC0E5" transform="translate(793,354)"/>
<path d="M0 0 C0.66 0 1.32 0 2 0 C2.08090971 1.62418745 2.13914995 3.24951745 2.1875 4.875 C2.22230469 5.77992188 2.25710938 6.68484375 2.29296875 7.6171875 C2.19628906 8.40351563 2.09960938 9.18984375 2 10 C1.01 10.66 0.02 11.32 -1 12 C-0.67 8.04 -0.34 4.08 0 0 Z " fill="#0C91D3" transform="translate(1172,324)"/>
<path d="M0 0 C0.99 0 1.98 0 3 0 C3.66 2.64 4.32 5.28 5 8 C4.01 8 3.02 8 2 8 C1.34 5.36 0.68 2.72 0 0 Z " fill="#0C93C9" transform="translate(929,276)"/>
<path d="M0 0 C0.33 0 0.66 0 1 0 C2.42857143 8.57142857 2.42857143 8.57142857 0 12 C-0.66 12 -1.32 12 -2 12 C-1.34 8.04 -0.68 4.08 0 0 Z " fill="#218ABF" transform="translate(674,238)"/>
<path d="M0 0 C0.33 0 0.66 0 1 0 C1.27632268 1.43267304 1.52019671 2.87163335 1.75 4.3125 C1.88921875 5.11300781 2.0284375 5.91351563 2.171875 6.73828125 C2.11515625 7.48464844 2.0584375 8.23101562 2 9 C0.68 9.99 -0.64 10.98 -2 12 C-1.34 8.04 -0.68 4.08 0 0 Z " fill="#118ECC" transform="translate(678,219)"/>
<path d="M0 0 C0.33 0 0.66 0 1 0 C1.36809816 5.52147239 1.36809816 5.52147239 -0.25 7.625 C-0.8275 8.07875 -1.405 8.5325 -2 9 C-2.721875 9.721875 -3.44375 10.44375 -4.1875 11.1875 C-5.0846875 12.0846875 -5.0846875 12.0846875 -6 13 C-4.31326082 8.50202887 -2.18326108 4.27113698 0 0 Z " fill="#1D8BC6" transform="translate(1130,222)"/>
<path d="M0 0 C0.99 0.33 1.98 0.66 3 1 C2.67 4.96 2.34 8.92 2 13 C1.67 13 1.34 13 1 13 C0.67 8.71 0.34 4.42 0 0 Z " fill="#2985B4" transform="translate(1008,202)"/>
<path d="M0 0 C-0.33 1.65 -0.66 3.3 -1 5 C-1.33 4.34 -1.66 3.68 -2 3 C-4.97 3 -7.94 3 -11 3 C-11 2.67 -11 2.34 -11 2 C-9.5422647 1.664061 -8.08378894 1.33133376 -6.625 1 C-5.40683594 0.7215625 -5.40683594 0.7215625 -4.1640625 0.4375 C-2 0 -2 0 0 0 Z " fill="#1C89CA" transform="translate(436,464)"/>
<path d="M0 0 C0.33 1.32 0.66 2.64 1 4 C1.66 4 2.32 4 3 4 C3 4.66 3 5.32 3 6 C2.01 6.495 2.01 6.495 1 7 C0.34444881 9.52733235 0.34444881 9.52733235 0 12 C-0.66 12 -1.32 12 -2 12 C-1.34 8.04 -0.68 4.08 0 0 Z " fill="#198BCA" transform="translate(530,136)"/>
<path d="M0 0 C0.99 0 1.98 0 3 0 C3.33 0.99 3.66 1.98 4 3 C5.65 3.33 7.3 3.66 9 4 C9 4.33 9 4.66 9 5 C6.36 5 3.72 5 1 5 C0.67 3.35 0.34 1.7 0 0 Z " fill="#2790C1" transform="translate(1345,197)"/>
<path d="M0 0 C0.33 0.66 0.66 1.32 1 2 C1.66 2 2.32 2 3 2 C3 3.32 3 4.64 3 6 C1.35 6 -0.3 6 -2 6 C-1.34 4.02 -0.68 2.04 0 0 Z " fill="#2287DB" transform="translate(1090,296)"/>
<path d="M0 0 C2.56616632 3.84924948 2.55097676 6.4349304 3 11 C2.34 11 1.68 11 1 11 C-0.28317892 7.15046324 -0.06643637 4.05261865 0 0 Z " fill="#168DC9" transform="translate(965,263)"/>
<path d="M0 0 C0.66 0.99 1.32 1.98 2 3 C1.0409375 4.1446875 1.0409375 4.1446875 0.0625 5.3125 C-2.14232781 7.88246713 -2.14232781 7.88246713 -3 11 C-3.66 10.67 -4.32 10.34 -5 10 C-3.35 6.7 -1.7 3.4 0 0 Z " fill="#54C4DC" transform="translate(778,242)"/>
<path d="M0 0 C0.66 0 1.32 0 2 0 C2.29296875 6.0546875 2.29296875 6.0546875 2 8 C1.01 8.66 0.02 9.32 -1 10 C-0.67 6.7 -0.34 3.4 0 0 Z " fill="#0E90D3" transform="translate(1028,342)"/>
<path d="M0 0 C0.66 0 1.32 0 2 0 C4.09230769 4.43076923 4.09230769 4.43076923 3.625 7.3125 C3.41875 7.869375 3.2125 8.42625 3 9 C0.23776722 6.23776722 0.42143709 3.79293383 0 0 Z " fill="#63C1DE" transform="translate(768,320)"/>
<path d="M0 0 C0.33 0.99 0.66 1.98 1 3 C1.66 3 2.32 3 3 3 C3 3.66 3 4.32 3 5 C1.02 5.66 -0.96 6.32 -3 7 C-1.125 2.25 -1.125 2.25 0 0 Z " fill="#198BCA" transform="translate(1107,265)"/>
<path d="M0 0 C0.33 0.99 0.66 1.98 1 3 C-4.2734375 6.22265625 -4.2734375 6.22265625 -6 7 C-6.66 6.67 -7.32 6.34 -8 6 C-5.36 4.02 -2.72 2.04 0 0 Z " fill="#168DD4" transform="translate(933,240)"/>
<path d="M0 0 C0 3 0 3 -2 6 C-4.625 6.6875 -4.625 6.6875 -7 7 C-4.66666667 4.66666667 -2.33333333 2.33333333 0 0 Z " fill="#4EC4E2" transform="translate(802,214)"/>
<path d="M0 0 C0.33 0 0.66 0 1 0 C1.3125 2.75 1.3125 2.75 1 6 C-1.5 8.375 -1.5 8.375 -4 10 C-2.8905928 6.51329166 -1.73662334 3.22515763 0 0 Z " fill="#1E89C3" transform="translate(554,46)"/>
<path d="M0 0 C-1.04874998 2.62187494 -1.64931313 3.79371361 -4.125 5.25 C-4.74375 5.4975 -5.3625 5.745 -6 6 C-6 5.01 -6 4.02 -6 3 C-2.66666667 0 -2.66666667 0 0 0 Z " fill="#128CDA" transform="translate(586,14)"/>
<path d="M0 0 C0.66 0 1.32 0 2 0 C1.34 1.98 0.68 3.96 0 6 C-0.99 5.67 -1.98 5.34 -3 5 C-1.125 1.125 -1.125 1.125 0 0 Z " fill="#188CC9" transform="translate(811,374)"/>
<path d="M0 0 C0.66 0 1.32 0 2 0 C2.73080266 1.97746603 3.39421747 3.98072489 4 6 C3.67 6.66 3.34 7.32 3 8 C2.34 8 1.68 8 1 8 C0.67 5.36 0.34 2.72 0 0 Z " fill="#0F8FD2" transform="translate(714,252)"/>
</svg>
